<svg id="visual" viewBox="0 0 960 300" width="960" height="300" xmlns="http://www.w3.org/2000/svg" xmlns:xlink="http://www.w3.org/1999/xlink" version="1.1"><path d="M0 143L22.8 134.2C45.7 125.3 91.3 107.7 137 107.2C182.7 106.7 228.3 123.3 274 120.8C319.7 118.3 365.3 96.7 411.2 92.7C457 88.7 503 102.3 548.8 111.8C594.7 121.3 640.3 126.7 686 120.5C731.7 114.3 777.3 96.7 823 97.5C868.7 98.3 914.3 117.7 937.2 127.3L960 137L960 301L937.2 301C914.3 301 868.7 301 823 301C777.3 301 731.7 301 686 301C640.3 301 594.7 301 548.8 301C503 301 457 301 411.2 301C365.3 301 319.7 301 274 301C228.3 301 182.7 301 137 301C91.3 301 45.7 301 22.8 301L0 301Z" fill="#f4f4f4"></path><path d="M0 178L22.8 165.2C45.7 152.3 91.3 126.7 137 119.5C182.7 112.3 228.3 123.7 274 123.3C319.7 123 365.3 111 411.2 105.5C457 100 503 101 548.8 103.3C594.7 105.7 640.3 109.3 686 120.5C731.7 131.7 777.3 150.3 823 151.2C868.7 152 914.3 135 937.2 126.5L960 118L960 301L937.2 301C914.3 301 868.7 301 823 301C777.3 301 731.7 301 686 301C640.3 301 594.7 301 548.8 301C503 301 457 301 411.2 301C365.3 301 319.7 301 274 301C228.3 301 182.7 301 137 301C91.3 301 45.7 301 22.8 301L0 301Z" fill="#bcc0c8"></path><path d="M0 207L22.8 203.2C45.7 199.3 91.3 191.7 137 185.7C182.7 179.7 228.3 175.3 274 171.7C319.7 168 365.3 165 411.2 160.5C457 156 503 150 548.8 156.7C594.7 163.3 640.3 182.7 686 184.5C731.7 186.3 777.3 170.7 823 165.2C868.7 159.7 914.3 164.3 937.2 166.7L960 169L960 301L937.2 301C914.3 301 868.7 301 823 301C777.3 301 731.7 301 686 301C640.3 301 594.7 301 548.8 301C503 301 457 301 411.2 301C365.3 301 319.7 301 274 301C228.3 301 182.7 301 137 301C91.3 301 45.7 301 22.8 301L0 301Z" fill="#868f9e"></path><path d="M0 240L22.8 234.5C45.7 229 91.3 218 137 218C182.7 218 228.3 229 274 225.5C319.7 222 365.3 204 411.2 194.2C457 184.3 503 182.7 548.8 191.7C594.7 200.7 640.3 220.3 686 224C731.7 227.7 777.3 215.3 823 213.8C868.7 212.3 914.3 221.7 937.2 226.3L960 231L960 301L937.2 301C914.3 301 868.7 301 823 301C777.3 301 731.7 301 686 301C640.3 301 594.7 301 548.8 301C503 301 457 301 411.2 301C365.3 301 319.7 301 274 301C228.3 301 182.7 301 137 301C91.3 301 45.7 301 22.8 301L0 301Z" fill="#536176"></path><path d="M0 249L22.8 247.2C45.7 245.3 91.3 241.7 137 240.3C182.7 239 228.3 240 274 244.3C319.7 248.7 365.3 256.3 411.2 259.3C457 262.3 503 260.7 548.8 261C594.7 261.3 640.3 263.7 686 259.2C731.7 254.7 777.3 243.3 823 237.2C868.7 231 914.3 230 937.2 229.5L960 229L960 301L937.2 301C914.3 301 868.7 301 823 301C777.3 301 731.7 301 686 301C640.3 301 594.7 301 548.8 301C503 301 457 301 411.2 301C365.3 301 319.7 301 274 301C228.3 301 182.7 301 137 301C91.3 301 45.7 301 22.8 301L0 301Z" fill="#213650"></path></svg>